M48
; DRILL file {KiCad 9.0.2} date 2026-04-18T04:44:06+0530
; FORMAT={-:-/ absolute / metric / decimal}
; #@! TF.CreationDate,2026-04-18T04:44:06+05:30
; #@! TF.GenerationSoftware,Kicad,Pcbnew,9.0.2
; #@! TF.FileFunction,Plated,1,2,PTH
FMAT,2
METRIC
; #@! TA.AperFunction,Plated,PTH,ViaDrill
T1C0.300
; #@! TA.AperFunction,Plated,PTH,ComponentDrill
T2C0.400
; #@! TA.AperFunction,Plated,PTH,ComponentDrill
T3C0.800
; #@! TA.AperFunction,Plated,PTH,ComponentDrill
T4C1.100
%
G90
G05
T1
X57.325Y-84.35
X60.075Y-85.675
X66.55Y-64.8
T3
X32.84Y-48.58
X32.84Y-56.2
X35.205Y-69.875
X35.28Y-73.825
X35.315Y-77.725
X36.125Y-86.675
X36.125Y-91.675
X37.925Y-62.025
X39.15Y-50.64
X39.15Y-53.14
X40.175Y-86.675
X40.175Y-91.675
X40.425Y-62.025
X42.825Y-69.875
X42.9Y-73.825
X42.935Y-77.725
X44.225Y-86.65
X44.225Y-91.65
X45.85Y-62.025
X47.06Y-37.825
X48.275Y-86.675
X48.275Y-91.675
X48.35Y-62.025
X49.155Y-71.975
X49.155Y-76.025
X49.155Y-80.075
X49.56Y-37.825
X53.715Y-37.975
X53.715Y-42.025
X55.022Y-91.85
X56.01Y-47.83
X56.01Y-50.37
X56.01Y-52.91
X56.01Y-55.45
X56.01Y-57.99
X56.01Y-60.53
X56.01Y-63.07
X56.775Y-71.975
X56.775Y-76.025
X56.775Y-80.075
X60.022Y-91.85
X61.055Y-73.455
X61.055Y-75.995
X61.055Y-78.535
X61.055Y-81.075
X61.335Y-37.975
X61.335Y-42.025
X63.63Y-47.83
X63.63Y-50.37
X63.63Y-52.91
X63.63Y-55.45
X63.63Y-57.99
X63.63Y-60.53
X63.63Y-63.07
X65.947Y-91.85
X68.205Y-58.925
X68.205Y-62.975
X68.265Y-46.675
X68.28Y-42.675
X68.675Y-73.455
X68.675Y-75.995
X68.675Y-78.535
X68.675Y-81.075
X70.8Y-37.075
X70.947Y-91.85
X73.3Y-37.075
X75.825Y-58.925
X75.825Y-62.975
X75.885Y-46.675
X75.9Y-42.675
X80.03Y-71.525
X80.055Y-58.8
X80.2Y-84.61
X82.575Y-51.375
X85.075Y-51.375
X87.65Y-71.525
X87.675Y-58.8
X87.82Y-84.61
X93.44Y-56.295
X93.44Y-58.835
X93.44Y-61.375
X93.44Y-69.19
X93.44Y-71.73
X93.44Y-74.27
X93.44Y-82.05
X93.44Y-84.59
X93.44Y-87.13
T4
X79.82Y-92.96
X82.36Y-92.96
X84.9Y-92.96
T2
G00X35.05Y-39.35
M15
G01X35.05Y-40.35
M16
G05
G00X40.55Y-34.85
M15
G01X39.55Y-34.85
M16
G05
G00X39.55Y-44.85
M15
G01X40.55Y-44.85
M16
G05
G00X85.85Y-34.6
M15
G01X84.85Y-34.6
M16
G05
G00X84.85Y-44.6
M15
G01X85.85Y-44.6
M16
G05
G00X90.35Y-40.1
M15
G01X90.35Y-39.1
M16
G05
T3
G00X40.4Y-37.35
M15
G01X39.7Y-37.35
M16
G05
G00X39.7Y-42.35
M15
G01X40.4Y-42.35
M16
G05
G00X85.7Y-37.1
M15
G01X85.0Y-37.1
M16
G05
G00X85.0Y-42.1
M15
G01X85.7Y-42.1
M16
G05
M30
